<?xml version="1.0" encoding="UTF-8" standalone="no"?>
<svg
   width="471"
   height="312"
   viewBox="0 0 471 312"
   fill="none"
   version="1.1"
   id="svg5"
   sodipodi:docname="kompismoln-logo.svg"
   inkscape:version="1.4.2 (ebf0e940d0, 2025-05-08)"
   xmlns:inkscape="http://www.inkscape.org/namespaces/inkscape"
   xmlns:sodipodi="http://sodipodi.sourceforge.net/DTD/sodipodi-0.dtd"
   xmlns="http://www.w3.org/2000/svg"
   xmlns:svg="http://www.w3.org/2000/svg">
  <sodipodi:namedview
     id="namedview5"
     pagecolor="#ffffff"
     bordercolor="#000000"
     borderopacity="0.25"
     inkscape:showpageshadow="2"
     inkscape:pageopacity="0.0"
     inkscape:pagecheckerboard="0"
     inkscape:deskcolor="#d1d1d1"
     inkscape:zoom="1.2648117"
     inkscape:cx="547.90765"
     inkscape:cy="296.48682"
     inkscape:window-width="1898"
     inkscape:window-height="1024"
     inkscape:window-x="0"
     inkscape:window-y="0"
     inkscape:window-maximized="1"
     inkscape:current-layer="svg5" />
  <g
     inkscape:groupmode="layer"
     id="layer1"
     inkscape:label="bg">
    <rect
       style="fill:none;fill-opacity:1;stroke-width:1.07844"
       id="rect5"
       width="470.99997"
       height="312"
       x="7.6293945e-06"
       y="3.5527137e-15"
       ry="0" />
  </g>
  <path
     fill-rule="evenodd"
     clip-rule="evenodd"
     d="m 253.75182,42.220585 c 1.55197,0.648408 3.07764,1.405705 4.57338,2.266787 3.07584,-3.241504 6.451,-5.031276 9.99124,-5.031276 4.28404,0 8.32589,2.620766 11.88972,7.26332 2.60416,-1.090412 5.36071,-1.6756 8.21341,-1.6756 10.38581,0 19.49539,7.75323 24.61029,19.402821 4.94709,-0.684227 10.06381,-1.043131 15.30206,-1.043131 25.90104,0 48.84416,8.776124 62.97431,22.271274 -0.002,-0.106202 -0.003,-0.212673 -0.003,-0.319503 0,-7.274155 4.10352,-13.17108 9.16491,-13.17108 5.06229,0 9.16491,5.896925 9.16491,13.17108 0,6.910327 -3.70261,12.577654 -8.41296,13.127382 3.14658,5.853851 4.86546,12.188751 4.86546,18.802681 0,6.27454 -1.54744,12.29835 -4.39288,17.89861 27.30969,5.9271 46.96563,22.47804 46.96563,41.96969 0,22.96069 -27.27522,41.84164 -62.20874,44.08031 3.07674,6.66676 4.85367,14.53882 4.85367,22.97233 0,24.0263 -14.42767,43.50452 -32.22505,43.50452 -5.14574,0 -10.00938,-1.62885 -14.32516,-4.5239 -8.07009,7.93743 -17.53524,12.50611 -27.65619,12.50611 -17.2205,0 -32.54252,-13.22786 -42.33058,-33.77527 -2.49894,0.16477 -5.04687,0.24894 -7.63289,0.24894 -13.83989,0 -26.57951,-2.42224 -36.70681,-6.48856 -10.07923,4.19079 -21.02833,6.48856 -32.47358,6.48856 -7.04693,0 -13.9061,-0.87129 -20.49044,-2.51895 -11.07517,9.64598 -24.48512,15.29101 -38.93364,15.29101 -33.29709,0 -61.076283,-29.97758 -67.49027,-69.82232 -28.771783,-6.05068 -48.697485,-19.15585 -48.697485,-34.34926 0,-17.3667 26.038455,-32.00671 61.564191,-36.49838 6.868695,-11.32498 15.87596,-20.45338 26.254974,-26.41362 -4.586,-5.73627 -7.40423,-13.523533 -7.40423,-22.100773 0,-17.634361 11.91267,-31.929791 26.60791,-31.929791 2.75745,0 5.41695,0.503342 7.91861,1.437674 1.9275,-13.849756 15.64856,-24.586865 32.28854,-24.586865 9.58307,0 18.19739,3.56056 24.1486,9.225649 4.70582,-13.826474 16.21184,-23.594059 29.65898,-23.594059 14.18729,0 26.21306,10.872682 30.37283,25.91359 z"
     fill="white"
     id="path1"
     style="display:inline;fill:#ffffff;fill-opacity:1;stroke:#000000;stroke-width:6;stroke-dasharray:none;stroke-opacity:1"
     inkscape:label="path1" />
  <g
     filter="url(#filter0_f_235_103)"
     id="g1"
     style="display:inline;filter:url(#filter0_f_235_103);fill:#000000">
    <ellipse
       cx="243.48199"
       cy="96.940697"
       rx="13.7296"
       ry="13.4226"
       fill="#30667c"
       id="ellipse1"
       style="fill:#000000" />
  </g>
  <g
     filter="url(#filter1_f_235_103)"
     id="g2"
     style="display:inline;filter:url(#filter1_f_235_103);fill:#000000">
    <ellipse
       cx="161.743"
       cy="96.940697"
       rx="13.7296"
       ry="13.4226"
       fill="#30667c"
       id="ellipse2"
       style="fill:#000000" />
  </g>
  <g
     filter="url(#filter2_f_235_103)"
     id="g3"
     style="display:inline;filter:url(#filter2_f_235_103);stroke:#000000;stroke-opacity:1">
    <path
       d="m 138.115,161.369 c 49.555,35.794 101.11,14.914 120.693,0"
       stroke="#30667c"
       stroke-width="5"
       stroke-linecap="round"
       id="path2"
       style="stroke:#000000;stroke-opacity:1" />
  </g>
  <defs
     id="defs5">
    <filter
       id="filter0_f_235_103"
       x="227.753"
       y="81.5182"
       width="31.4592"
       height="30.8451"
       filterUnits="userSpaceOnUse"
       color-interpolation-filters="sRGB">
      <feFlood
         flood-opacity="0"
         result="BackgroundImageFix"
         id="feFlood3" />
      <feBlend
         mode="normal"
         in="SourceGraphic"
         in2="BackgroundImageFix"
         result="shape"
         id="feBlend3" />
      <feGaussianBlur
         stdDeviation="0.097168964"
         result="effect1_foregroundBlur_235_103"
         id="feGaussianBlur3" />
    </filter>
    <filter
       id="filter1_f_235_103"
       x="146.014"
       y="81.5182"
       width="31.4592"
       height="30.8451"
       filterUnits="userSpaceOnUse"
       color-interpolation-filters="sRGB">
      <feFlood
         flood-opacity="0"
         result="BackgroundImageFix"
         id="feFlood4" />
      <feBlend
         mode="normal"
         in="SourceGraphic"
         in2="BackgroundImageFix"
         result="shape"
         id="feBlend4" />
      <feGaussianBlur
         stdDeviation="0.075428769"
         result="effect1_foregroundBlur_235_103"
         id="feGaussianBlur4" />
    </filter>
    <filter
       id="filter2_f_235_103"
       x="133.615"
       y="156.869"
       width="129.693"
       height="28.7686"
       filterUnits="userSpaceOnUse"
       color-interpolation-filters="sRGB">
      <feFlood
         flood-opacity="0"
         result="BackgroundImageFix"
         id="feFlood5" />
      <feBlend
         mode="normal"
         in="SourceGraphic"
         in2="BackgroundImageFix"
         result="shape"
         id="feBlend5" />
      <feGaussianBlur
         stdDeviation="0.16883819"
         result="effect1_foregroundBlur_235_103"
         id="feGaussianBlur5" />
    </filter>
  </defs>
</svg>
